<?xml version="1.0" encoding="utf-8"?>
<!-- Generator: Adobe Illustrator 24.1.2, SVG Export Plug-In . SVG Version: 6.00 Build 0)  -->
<svg version="1.1" id="hefhbfeh" xmlns="http://www.w3.org/2000/svg" xmlns:xlink="http://www.w3.org/1999/xlink" x="0px" y="0px"
	 viewBox="0 0 118 110" style="enable-background:new 0 0 118 110;" xml:space="preserve">
<style type="text/css">
	.st0{fill:#FFFFFF;}
</style>
<g id="SvgjsG2418" transform="matrix(1,0,0,1,0,0)">
	<path d="M10,0h98c5.5,0,10,4.5,10,10v90c0,5.5-4.5,10-10,10H10c-5.5,0-10-4.5-10-10V10C0,4.5,4.5,0,10,0z"/>
</g>
<g id="SvgjsG2419" transform="matrix(1.2153277608116113,0,0,1.2153277608116113,-1.8758996946090036,-5.521882977043838)">
	<path class="st0" d="M28,76c0,1.7,1.3,3,3,3c14.9,0,27.3-11.2,28.8-26h11.9l-6.9,6.9l4.2,4.2l12-12c1.2-1.2,1.2-3.1,0-4.2l-12-12
		l-4.2,4.2l6.9,6.9H59.8c-1.5-14.8-14-26-28.8-26c-1.7,0-3,1.3-3,3v23H18v6h10V76z M34,72.8V53h19.8C52.4,63.3,44.3,71.4,34,72.8z
		 M34,27.2c10.3,1.4,18.4,9.5,19.8,19.8H34V27.2z"/>
</g>
</svg>
